# xmcd
#
# Track frame offsets:
#	150
#	17981
#	31494
#	50383
#	64842
#	80547
#	97853
#	109720
#	126507
#	138339
#	154448
#	174350
#
# Disc length: 2683 seconds
#
# Revision: 1
# Processed by: cddbd v1.5.2PL0 Copyright (c) Steve Scherf et al.
# Submitted via: audiograbber 1.83.01
#
DISCID=9f0a790c
DTITLE=Mr. John Kampen and Jam Fischer - Spun at the weaving mill
DYEAR=2011
DGENRE=Country
TTITLE0=Devil Wouman (remake)
TTITLE1=Un dann dräum ich vun Virginia
TTITLE2=I can´t stop loving You
TTITLE3=Mi  Mädche us Kölle
TTITLE4=Jambalaya (jemake)
TTITLE5=Lonesome Blue
TTITLE6=Some broken Hearts never mend (remake)
TTITLE7=Will the circle be unbroken
TTITLE8=Take these Chains (remake)
TTITLE9=You´re my best friend
TTITLE10=Sloop John B
TTITLE11=Amazing Grace
EXTD=
EXTT0=
EXTT1=
EXTT2=
EXTT3=
EXTT4=
EXTT5=
EXTT6=
EXTT7=
EXTT8=
EXTT9=
EXTT10=
EXTT11=
PLAYORDER=
